<?xml version="1.0" standalone="no"?>
<!DOCTYPE svg PUBLIC "-//W3C//DTD SVG 20010904//EN"
 "http://www.w3.org/TR/2001/REC-SVG-20010904/DTD/svg10.dtd">
<svg version="1.0" xmlns="http://www.w3.org/2000/svg"
 width="225.000000pt" height="225.000000pt" viewBox="0 0 225.000000 225.000000"
 preserveAspectRatio="xMidYMid meet">

<g transform="translate(0.000000,225.000000) scale(0.100000,-0.100000)"
fill="#000000" stroke="none">
<path d="M272 2040 c-33 -15 -47 -29 -62 -62 -19 -41 -20 -72 -20 -853 0 -781
1 -812 20 -853 15 -33 29 -47 62 -62 41 -19 72 -20 853 -20 781 0 812 1 853
20 33 15 47 29 62 62 19 41 20 72 20 853 0 781 -1 812 -20 853 -15 33 -29 47
-62 62 -41 19 -72 20 -853 20 -781 0 -812 -1 -853 -20z m924 -181 l24 -24 -19
-214 c-15 -184 -20 -216 -36 -227 -26 -19 -79 -17 -104 4 -21 18 -24 40 -48
364 l-6 87 34 21 c46 28 120 23 155 -11z m-458 -408 c158 -110 167 -119 170
-152 2 -27 -3 -41 -24 -62 -15 -15 -30 -27 -35 -27 -17 0 -393 180 -400 192
-14 21 -10 77 6 109 19 36 73 71 98 63 11 -3 94 -59 185 -123z m1010 85 c39
-38 52 -94 29 -129 -9 -14 -83 -54 -206 -111 -187 -87 -191 -88 -216 -72 -30
20 -49 61 -40 91 4 16 194 157 333 247 33 22 57 16 100 -26z m-861 -508 c16
-15 23 -33 23 -58 0 -35 -3 -38 -176 -158 -96 -67 -184 -122 -195 -122 -11 0
-36 15 -55 33 -30 28 -37 42 -41 83 -4 39 -1 53 12 64 29 25 358 178 384 179
14 1 35 -9 48 -21z m699 -65 c202 -94 212 -103 199 -169 -8 -45 -63 -104 -96
-104 -26 0 -345 217 -367 250 -27 37 13 109 60 110 9 0 101 -39 204 -87z
m-423 -95 c21 -21 24 -39 35 -188 7 -91 15 -183 18 -205 4 -30 1 -47 -13 -63
-36 -45 -138 -46 -178 -2 -17 19 -17 28 0 235 18 214 18 216 44 230 38 21 69
18 94 -7z"/>
</g>
</svg>
